<?xml version="1.0" encoding="UTF-8" standalone="no"?>
<!DOCTYPE svg PUBLIC "-//W3C//DTD SVG 1.1//EN" "http://www.w3.org/Graphics/SVG/1.1/DTD/svg11.dtd">
<svg xmlns="http://www.w3.org/2000/svg" xmlns:dc="http://purl.org/dc/elements/1.1/" xmlns:xl="http://www.w3.org/1999/xlink" version="1.1" viewBox="0 0 16 16" width="16" height="16">
  <defs/>
  <metadata> Produced by OmniGraffle 7.16 
    <dc:date>2020-04-22 21:38:36 +0000</dc:date>
  </metadata>
  <g id="svg" stroke="none" stroke-opacity="1" stroke-dasharray="none" fill="none" fill-opacity="1">
    <title>svg</title>
    <g id="svg: Layer 1">
      <title>Layer 1</title>
      <g id="Graphic_6">
        <path d="M 4.000103 2.0555126 C 4.000103 1.7748496 4.1981003 1.5215195 4.48943 1.4575203 C 7.428059 .810862 7.539391 .8948609 7.823387 .33886802 C 7.934052 .12420412 8.154716 20571036e-11 8.384713 20571036e-11 C 9.346701 20571036e-11 9.136703 1.6695176 7.640056 2.021513 C 7.2140615 2.1215118 4.764093 2.6541716 4.764093 2.6541716 C 4.3734314 2.7401705 4.000103 2.4495076 4.000103 2.0555126 Z M 4.764093 4.761478 L 11.510006 3.277497 C 11.802669 3.2134977 12 2.9601677 12 2.6801713 C 12 2.288843 11.627338 1.9948467 11.23601 2.0815123 L 4.48943 3.5648265 C 4.151434 3.6394923 3.939437 3.967488 4.015436 4.2981505 C 4.091435 4.628813 4.426764 4.8361435 4.764093 4.761478 Z M 6.105409 9.00209 L 6.105409 9.333419 L 4.666761 9.333419 L 4.666761 11.09273 C 4.666761 12.278715 5.75408 12.812708 6.000077 14.000026 L 10.000026 14.000026 C 10.250022 12.831374 11.333342 12.276715 11.333342 11.09273 L 11.333342 9.333419 L 9.89536 9.333419 L 9.89536 8.694761 C 9.89536 8.205434 10.242023 7.780106 10.730016 7.67144 L 11.438007 7.477443 C 11.730003 7.413444 11.927334 7.160114 11.927334 6.880117 C 11.927334 6.488789 11.554672 6.194793 11.163344 6.281458 L 10.324022 6.510789 C 9.353367 6.732786 8.66671 7.578775 8.66671 8.554096 L 8.66671 9.333419 L 7.333393 9.333419 L 7.333393 8.874092 C 7.333393 7.789439 6.756734 7.346778 5.9487445 6.611454 L 11.510673 5.3881364 C 11.802669 5.3234706 12 5.070807 12 4.790144 C 12 4.396816 11.627338 4.1048196 11.23601 4.191485 L 4.48943 5.675466 C 4.1981003 5.739465 4.000103 5.992795 4.000103 6.272792 C 4.000103 6.467456 4.087435 6.602121 4.229433 6.744119 C 4.791426 7.306112 6.105409 7.864105 6.105409 9.00209 Z M 8.86604 15.77267 C 8.739375 15.916668 8.556044 16 8.364047 16 L 7.635389 16 C 7.443392 16 7.260728 15.916668 7.1340626 15.77267 L 6.166742 14.666684 L 9.833361 14.666684 L 8.86604 15.77267 Z" fill="black"/>
      </g>
    </g>
  </g>
</svg>
