<?xml version="1.0" encoding="UTF-8" standalone="no"?>
<!DOCTYPE svg PUBLIC "-//W3C//DTD SVG 1.1//EN" "http://www.w3.org/Graphics/SVG/1.1/DTD/svg11.dtd">
<svg xmlns="http://www.w3.org/2000/svg" xmlns:dc="http://purl.org/dc/elements/1.1/" xmlns:xl="http://www.w3.org/1999/xlink" version="1.1" viewBox="0 0 630 630" width="630" height="630">
  <style>
      path {
          fill: #000;
      }
      @media (prefers-color-scheme: dark) {
          path {
              fill: #fff;
          }
      }
  </style>
  <defs/>
  <g id="touch" stroke="none" stroke-opacity="1" stroke-dasharray="none" fill="none" fill-opacity="1">
    <title>touch</title>
    <g id="touch: Layer 1">
      <title>Layer 1</title>
      <g id="Graphic_9">
        <path d="M 174.94369 480.5113 L 174.61197 480.5113 L 315 572 L 455.38803 480.5113 L 455.0563 480.5113 C 520.05615 437.53243 544.5534 362.5429 544.5534 287.5534 L 544.5534 58 L 85.4466 58 L 85.4466 287.5534 C 85.4466 362.5429 109.94386 437.53244 174.94369 480.5113 Z M 181.28928 473.01243 L 181.28928 473.01243 C 119.23443 431.9808 95.84708 360.38887 95.84708 288.79693 L 95.84708 69.64401 L 534.1529 69.64401 L 534.1529 288.79693 C 534.1529 360.38887 510.7656 431.9808 448.71073 473.01243 L 449.0274 473.01243 L 315 560.356 L 180.9726 473.01243 L 181.28928 473.01243 Z M 186.72835 466.5848 L 186.42456 466.5848 L 315 550.3754 L 443.57544 466.5848 L 443.27165 466.5848 C 502.80223 427.22226 525.2382 358.54254 525.2382 289.86282 L 525.2382 79.6246 L 104.76177 79.6246 L 104.76177 289.86282 C 104.76177 358.54254 127.19777 427.22226 186.72835 466.5848 Z M 215.99308 155.24965 L 215.99308 155.24965 C 215.99308 148.30258 220.89398 142.03206 228.10508 140.44793 C 300.8431 124.4416 303.59883 126.52077 310.6284 112.75863 C 313.36764 107.4452 318.8296 104.37594 324.52256 104.37594 C 348.33403 104.37594 343.1361 145.69536 306.09054 154.40808 C 295.54616 156.88329 234.90364 170.06788 234.90364 170.06788 C 225.23384 172.19655 215.99308 165.00196 215.99308 155.24965 Z M 234.90364 222.2287 L 234.90364 222.2287 C 226.55395 224.07685 218.25376 218.94492 216.3726 210.76025 C 214.49145 202.57557 219.73889 194.4569 228.10508 192.60874 L 395.0989 155.8932 C 404.7852 153.74803 414.00947 161.02513 414.00947 170.71143 C 414.00947 177.642 409.12507 183.91252 401.88097 185.49666 Z M 228.10508 244.85207 L 228.10508 244.85207 L 395.0989 208.12003 C 404.7852 205.97485 414.00947 213.20245 414.00947 222.93826 C 414.00947 229.88533 409.12507 236.13935 401.89747 237.73998 L 264.22657 268.02 C 284.22623 286.221 298.4999 297.1779 298.4999 324.02562 L 298.4999 335.39507 L 331.50264 335.39507 L 331.50264 316.10497 C 331.50264 291.96347 348.49905 271.02324 372.52504 265.52828 L 393.30026 259.8518 C 402.98656 257.70663 412.2108 264.98374 412.2108 274.67004 C 412.2108 281.6006 407.3264 287.87113 400.0988 289.45526 L 382.57437 294.25716 C 370.49537 296.9469 361.91466 307.47475 361.91466 319.58676 L 361.91466 335.39507 L 397.5081 335.39507 L 397.5081 378.94217 C 397.5081 408.2486 370.6934 421.97773 364.50537 450.90463 L 265.49717 450.90463 C 259.40817 421.5157 232.49444 408.2981 232.49444 378.94217 L 232.49444 335.39507 L 268.1044 335.39507 L 268.1044 327.1939 C 268.1044 299.02605 235.5802 285.2144 221.66955 271.30376 C 218.15476 267.78897 215.99308 264.4557 215.99308 259.6373 C 215.99308 252.70942 220.89016 246.4411 228.10508 244.85207 L 228.09665 244.85392 C 228.09946 244.8533 228.10227 244.8527 228.10508 244.85207 Z M 336.43655 494.78176 L 336.43655 494.78176 C 333.3013 498.34606 328.7634 500.4087 324.011 500.4087 L 305.97503 500.4087 C 301.22263 500.4087 296.70126 498.34606 293.566 494.78176 L 269.62252 467.406 L 360.38003 467.406 L 336.43655 494.78176 Z" fill="black"/>
        <path d="M 174.94369 480.5113 L 174.61197 480.5113 L 315 572 L 455.38803 480.5113 L 455.0563 480.5113 C 520.05615 437.53243 544.5534 362.5429 544.5534 287.5534 L 544.5534 58 L 85.4466 58 L 85.4466 287.5534 C 85.4466 362.5429 109.94386 437.53244 174.94369 480.5113 Z M 181.28928 473.01243 L 181.28928 473.01243 C 119.23443 431.9808 95.84708 360.38887 95.84708 288.79693 L 95.84708 69.64401 L 534.1529 69.64401 L 534.1529 288.79693 C 534.1529 360.38887 510.7656 431.9808 448.71073 473.01243 L 449.0274 473.01243 L 315 560.356 L 180.9726 473.01243 L 181.28928 473.01243 Z M 186.72835 466.5848 L 186.42456 466.5848 L 315 550.3754 L 443.57544 466.5848 L 443.27165 466.5848 C 502.80223 427.22226 525.2382 358.54254 525.2382 289.86282 L 525.2382 79.6246 L 104.76177 79.6246 L 104.76177 289.86282 C 104.76177 358.54254 127.19777 427.22226 186.72835 466.5848 Z M 215.99308 155.24965 L 215.99308 155.24965 C 215.99308 148.30258 220.89398 142.03206 228.10508 140.44793 C 300.8431 124.4416 303.59883 126.52077 310.6284 112.75863 C 313.36764 107.4452 318.8296 104.37594 324.52256 104.37594 C 348.33403 104.37594 343.1361 145.69536 306.09054 154.40808 C 295.54616 156.88329 234.90364 170.06788 234.90364 170.06788 C 225.23384 172.19655 215.99308 165.00196 215.99308 155.24965 Z M 234.90364 222.2287 L 234.90364 222.2287 C 226.55395 224.07685 218.25376 218.94492 216.3726 210.76025 C 214.49145 202.57557 219.73889 194.4569 228.10508 192.60874 L 395.0989 155.8932 C 404.7852 153.74803 414.00947 161.02513 414.00947 170.71143 C 414.00947 177.642 409.12507 183.91252 401.88097 185.49666 Z M 228.10508 244.85207 L 228.10508 244.85207 L 395.0989 208.12003 C 404.7852 205.97485 414.00947 213.20245 414.00947 222.93826 C 414.00947 229.88533 409.12507 236.13935 401.89747 237.73998 L 264.22657 268.02 C 284.22623 286.221 298.4999 297.1779 298.4999 324.02562 L 298.4999 335.39507 L 331.50264 335.39507 L 331.50264 316.10497 C 331.50264 291.96347 348.49905 271.02324 372.52504 265.52828 L 393.30026 259.8518 C 402.98656 257.70663 412.2108 264.98374 412.2108 274.67004 C 412.2108 281.6006 407.3264 287.87113 400.0988 289.45526 L 382.57437 294.25716 C 370.49537 296.9469 361.91466 307.47475 361.91466 319.58676 L 361.91466 335.39507 L 397.5081 335.39507 L 397.5081 378.94217 C 397.5081 408.2486 370.6934 421.97773 364.50537 450.90463 L 265.49717 450.90463 C 259.40817 421.5157 232.49444 408.2981 232.49444 378.94217 L 232.49444 335.39507 L 268.1044 335.39507 L 268.1044 327.1939 C 268.1044 299.02605 235.5802 285.2144 221.66955 271.30376 C 218.15476 267.78897 215.99308 264.4557 215.99308 259.6373 C 215.99308 252.70942 220.89016 246.4411 228.10508 244.85207 L 228.09665 244.85392 C 228.09946 244.8533 228.10227 244.8527 228.10508 244.85207 Z M 336.43655 494.78176 L 336.43655 494.78176 C 333.3013 498.34606 328.7634 500.4087 324.011 500.4087 L 305.97503 500.4087 C 301.22263 500.4087 296.70126 498.34606 293.566 494.78176 L 269.62252 467.406 L 360.38003 467.406 L 336.43655 494.78176 Z" stroke="black" stroke-linecap="round" stroke-linejoin="miter" stroke-width="1"/>
      </g>
    </g>
  </g>
</svg>
