<?xml version="1.0" encoding="UTF-8" standalone="no"?>
<!DOCTYPE svg PUBLIC "-//W3C//DTD SVG 1.1//EN" "http://www.w3.org/Graphics/SVG/1.1/DTD/svg11.dtd">
<svg xmlns="http://www.w3.org/2000/svg" xmlns:xl="http://www.w3.org/1999/xlink" version="1.1" xmlns:dc="http://purl.org/dc/elements/1.1/" viewBox="134.16417 197.5 931.6717 235.0968" width="931.6717" height="235.0968">
  <defs/>
  <metadata> Produced by OmniGraffle 7.15 
    <dc:date>2020-04-21 18:31:01 +0000</dc:date>
  </metadata>
  <g id="social-media" fill-opacity="1" stroke-opacity="1" fill="none" stroke="none" stroke-dasharray="none">
    <title>social-media</title>
    <g id="social-media: Layer 1">
      <title>Layer 1</title>
      <g id="Group_74">
        <g id="Graphic_96">
          <path d="M 175.40798 390.3495 L 175.25697 390.3495 L 239.16903 432 L 303.0811 390.3495 L 302.93008 390.3495 C 332.52144 370.78325 343.6739 336.64405 343.6739 302.50485 L 343.6739 198 L 134.66417 198 L 134.66417 302.50485 C 134.66417 336.64405 145.81662 370.78325 175.40798 390.3495 Z M 178.29683 386.9356 L 178.29683 386.9356 C 150.04618 368.25585 139.39902 335.6634 139.39902 303.07098 L 139.39902 203.30097 L 338.93903 203.30097 L 338.93903 303.07098 C 338.93903 335.6634 328.29188 368.25585 300.04123 386.9356 L 300.1854 386.9356 L 239.16903 426.69903 L 178.15266 386.9356 L 178.29683 386.9356 Z M 180.77298 384.00943 L 180.63468 384.00943 L 239.16903 422.15534 L 297.70337 384.00943 L 297.56507 384.00943 C 324.66654 366.0895 334.8806 334.82287 334.8806 303.55623 L 334.8806 207.84466 L 143.45746 207.84466 L 143.45746 303.55623 C 143.45746 334.82287 153.67151 366.0895 180.77298 384.00942 Z M 194.09584 242.2732 L 194.09584 242.2732 C 194.09584 239.1105 196.32699 236.25584 199.60986 235.53466 C 232.72406 228.24773 233.9786 229.19428 237.17885 222.92903 C 238.4259 220.51007 240.91246 219.11278 243.5042 219.11278 C 254.34444 219.11278 251.97807 237.92357 235.11297 241.89006 C 230.3126 243.0169 202.70493 249.01923 202.70493 249.01923 C 198.30272 249.9883 194.09584 246.71295 194.09584 242.2732 Z M 202.70493 272.7656 L 202.70493 272.7656 C 198.9037 273.60697 195.12502 271.27065 194.26862 267.54455 C 193.41222 263.81845 195.80113 260.1224 199.60986 259.28102 L 275.6343 242.56617 C 280.044 241.58957 284.24338 244.9025 284.24338 249.3122 C 284.24338 252.46737 282.01974 255.32204 278.72184 256.04322 Z M 199.60986 283.06495 L 199.60986 283.06495 L 275.6343 266.34258 C 280.044 265.36598 284.24338 268.65637 284.24338 273.08862 C 284.24338 276.2513 282.01974 279.09846 278.72935 279.82715 L 216.05427 293.6122 C 225.15918 301.89827 231.6573 306.88644 231.6573 319.10894 L 231.6573 324.2849 L 246.6819 324.2849 L 246.6819 315.50304 C 246.6819 304.51255 254.41956 294.97945 265.35747 292.47786 L 274.81545 289.89363 C 279.22516 288.91703 283.42454 292.22995 283.42454 296.63967 C 283.42454 299.79483 281.2009 302.6495 277.9105 303.3707 L 269.93245 305.55676 C 264.43345 306.78127 260.52706 311.5741 260.52706 317.08813 L 260.52706 324.2849 L 276.73108 324.2849 L 276.73108 344.10986 C 276.73108 357.4517 264.5236 363.70193 261.7065 376.871 L 216.63272 376.871 C 213.86068 363.4916 201.60813 357.47423 201.60813 344.10986 L 201.60813 324.2849 L 217.81966 324.2849 L 217.81966 320.5513 C 217.81966 307.7278 203.01293 301.44002 196.68006 295.10716 C 195.07995 293.50704 194.09584 291.98956 194.09584 289.79597 C 194.09584 286.64203 196.32525 283.78836 199.60986 283.06495 L 199.60602 283.0658 C 199.6073 283.0655 199.60858 283.06523 199.60986 283.06495 Z M 248.92808 396.84617 L 248.92808 396.84617 C 247.50074 398.46883 245.43486 399.40786 243.27132 399.40786 L 235.06038 399.40786 C 232.89684 399.40786 230.83847 398.46883 229.41113 396.84617 L 218.5108 384.38327 L 259.82842 384.38327 L 248.92808 396.84617 Z" fill="black"/>
          <path d="M 175.40798 390.3495 L 175.25697 390.3495 L 239.16903 432 L 303.0811 390.3495 L 302.93008 390.3495 C 332.52144 370.78325 343.6739 336.64405 343.6739 302.50485 L 343.6739 198 L 134.66417 198 L 134.66417 302.50485 C 134.66417 336.64405 145.81662 370.78325 175.40798 390.3495 Z M 178.29683 386.9356 L 178.29683 386.9356 C 150.04618 368.25585 139.39902 335.6634 139.39902 303.07098 L 139.39902 203.30097 L 338.93903 203.30097 L 338.93903 303.07098 C 338.93903 335.6634 328.29188 368.25585 300.04123 386.9356 L 300.1854 386.9356 L 239.16903 426.69903 L 178.15266 386.9356 L 178.29683 386.9356 Z M 180.77298 384.00943 L 180.63468 384.00943 L 239.16903 422.15534 L 297.70337 384.00943 L 297.56507 384.00943 C 324.66654 366.0895 334.8806 334.82287 334.8806 303.55623 L 334.8806 207.84466 L 143.45746 207.84466 L 143.45746 303.55623 C 143.45746 334.82287 153.67151 366.0895 180.77298 384.00942 Z M 194.09584 242.2732 L 194.09584 242.2732 C 194.09584 239.1105 196.32699 236.25584 199.60986 235.53466 C 232.72406 228.24773 233.9786 229.19428 237.17885 222.92903 C 238.4259 220.51007 240.91246 219.11278 243.5042 219.11278 C 254.34444 219.11278 251.97807 237.92357 235.11297 241.89006 C 230.3126 243.0169 202.70493 249.01923 202.70493 249.01923 C 198.30272 249.9883 194.09584 246.71295 194.09584 242.2732 Z M 202.70493 272.7656 L 202.70493 272.7656 C 198.9037 273.60697 195.12502 271.27065 194.26862 267.54455 C 193.41222 263.81845 195.80113 260.1224 199.60986 259.28102 L 275.6343 242.56617 C 280.044 241.58957 284.24338 244.9025 284.24338 249.3122 C 284.24338 252.46737 282.01974 255.32204 278.72184 256.04322 Z M 199.60986 283.06495 L 199.60986 283.06495 L 275.6343 266.34258 C 280.044 265.36598 284.24338 268.65637 284.24338 273.08862 C 284.24338 276.2513 282.01974 279.09846 278.72935 279.82715 L 216.05427 293.6122 C 225.15918 301.89827 231.6573 306.88644 231.6573 319.10894 L 231.6573 324.2849 L 246.6819 324.2849 L 246.6819 315.50304 C 246.6819 304.51255 254.41956 294.97945 265.35747 292.47786 L 274.81545 289.89363 C 279.22516 288.91703 283.42454 292.22995 283.42454 296.63967 C 283.42454 299.79483 281.2009 302.6495 277.9105 303.3707 L 269.93245 305.55676 C 264.43345 306.78127 260.52706 311.5741 260.52706 317.08813 L 260.52706 324.2849 L 276.73108 324.2849 L 276.73108 344.10986 C 276.73108 357.4517 264.5236 363.70193 261.7065 376.871 L 216.63272 376.871 C 213.86068 363.4916 201.60813 357.47423 201.60813 344.10986 L 201.60813 324.2849 L 217.81966 324.2849 L 217.81966 320.5513 C 217.81966 307.7278 203.01293 301.44002 196.68006 295.10716 C 195.07995 293.50704 194.09584 291.98956 194.09584 289.79597 C 194.09584 286.64203 196.32525 283.78836 199.60986 283.06495 L 199.60602 283.0658 C 199.6073 283.0655 199.60858 283.06523 199.60986 283.06495 Z M 248.92808 396.84617 L 248.92808 396.84617 C 247.50074 398.46883 245.43486 399.40786 243.27132 399.40786 L 235.06038 399.40786 C 232.89684 399.40786 230.83847 398.46883 229.41113 396.84617 L 218.5108 384.38327 L 259.82842 384.38327 L 248.92808 396.84617 Z" stroke="black" stroke-linecap="round" stroke-linejoin="miter" stroke-width="1"/>
        </g>
        <g id="Group_75">
          <g id="Graphic_95">
            <path d="M 419.52564 276.24654 L 432.80924 276.24654 C 440.4329 276.24654 446.3816 273.62835 450.65546 268.3919 C 454.92934 263.15544 457.06624 255.26236 457.06624 244.71244 C 457.06624 234.0855 454.9871 226.2887 450.8287 221.32175 C 446.67036 216.35482 440.85644 213.87139 433.3868 213.87139 L 419.52564 213.87139 Z M 397.5788 285.4873 L 397.5788 278.55674 L 407.39713 276.24654 L 407.39713 213.87139 L 397.5788 211.5612 L 397.5788 205.20817 L 419.52564 204.63062 L 433.96433 204.63062 C 439.66283 204.63062 444.76445 205.49693 449.26935 207.22959 C 453.77424 208.96224 457.586 211.50342 460.7048 214.85322 C 463.82357 218.203 466.21074 222.3228 467.8664 227.21274 C 469.52203 232.10267 470.34984 237.70483 470.34984 244.01938 C 470.34984 250.33393 469.445 256.03235 467.63537 261.1148 C 465.8257 266.19724 463.26527 270.54806 459.954 274.16737 C 456.6427 277.7867 452.6384 280.57814 447.941 282.5418 C 443.2436 284.5055 438.0072 285.4873 432.2317 285.4873 Z" fill="black"/>
            <path d="M 419.52564 276.24654 L 432.80924 276.24654 C 440.4329 276.24654 446.3816 273.62835 450.65546 268.3919 C 454.92934 263.15544 457.06624 255.26236 457.06624 244.71244 C 457.06624 234.0855 454.9871 226.2887 450.8287 221.32175 C 446.67036 216.35482 440.85644 213.87139 433.3868 213.87139 L 419.52564 213.87139 Z M 397.5788 285.4873 L 397.5788 278.55674 L 407.39713 276.24654 L 407.39713 213.87139 L 397.5788 211.5612 L 397.5788 205.20817 L 419.52564 204.63062 L 433.96433 204.63062 C 439.66283 204.63062 444.76445 205.49693 449.26935 207.22959 C 453.77424 208.96224 457.586 211.50342 460.7048 214.85322 C 463.82357 218.203 466.21074 222.3228 467.8664 227.21274 C 469.52203 232.10267 470.34984 237.70483 470.34984 244.01938 C 470.34984 250.33393 469.445 256.03235 467.63537 261.1148 C 465.8257 266.19724 463.26527 270.54806 459.954 274.16737 C 456.6427 277.7867 452.6384 280.57814 447.941 282.5418 C 443.2436 284.5055 438.0072 285.4873 432.2317 285.4873 Z" stroke="black" stroke-linecap="round" stroke-linejoin="round" stroke-width="1"/>
          </g>
          <g id="Graphic_94">
            <path d="M 530.8247 256.3789 L 490.9739 256.60992 C 490.9739 262.92447 492.49475 267.96834 495.5365 271.74167 C 498.5783 275.515 502.6403 277.40164 507.7228 277.40164 C 509.4169 277.40164 511.11104 277.24763 512.8052 276.9396 C 514.49934 276.63157 516.0972 276.24655 517.59884 275.7845 C 519.1005 275.32247 520.4673 274.80268 521.6994 274.22513 C 522.93153 273.64758 523.9711 273.0893 524.8182 272.55024 L 527.1284 271.0486 L 531.1712 277.0551 C 528.553 279.1343 526.14656 280.77066 523.95186 281.96427 C 521.7572 283.15787 519.1775 284.23595 516.2127 285.19854 C 513.24796 286.16112 510.033 286.6424 506.5677 286.6424 C 497.4809 286.6424 490.5889 283.88945 485.89146 278.38347 C 481.19405 272.8775 478.8454 265.3502 478.8454 255.80135 C 478.8454 251.02693 479.53843 246.63762 480.92455 242.63326 C 482.3107 238.6289 484.25507 235.1829 486.7578 232.29516 C 489.2605 229.4074 492.2445 227.155 495.7098 225.53785 C 499.1751 223.9207 502.98686 223.11215 507.1452 223.11215 C 523.31664 223.11215 531.4022 232.1603 531.4022 250.2569 Z M 491.4359 247.9467 L 519.1582 247.9467 C 519.1582 243.2493 518.15714 239.43751 516.15497 236.51126 C 514.1528 233.585 510.91856 232.1219 506.45217 232.1219 C 502.0628 232.1219 498.559 233.60425 495.9408 236.569 C 493.32257 239.53377 491.82096 243.3263 491.4359 247.9467 Z" fill="black"/>
            <path d="M 530.8247 256.3789 L 490.9739 256.60992 C 490.9739 262.92447 492.49475 267.96834 495.5365 271.74167 C 498.5783 275.515 502.6403 277.40164 507.7228 277.40164 C 509.4169 277.40164 511.11104 277.24763 512.8052 276.9396 C 514.49934 276.63157 516.0972 276.24655 517.59884 275.7845 C 519.1005 275.32247 520.4673 274.80268 521.6994 274.22513 C 522.93153 273.64758 523.9711 273.0893 524.8182 272.55024 L 527.1284 271.0486 L 531.1712 277.0551 C 528.553 279.1343 526.14656 280.77066 523.95186 281.96427 C 521.7572 283.15787 519.1775 284.23595 516.2127 285.19854 C 513.24796 286.16112 510.033 286.6424 506.5677 286.6424 C 497.4809 286.6424 490.5889 283.88945 485.89146 278.38347 C 481.19405 272.8775 478.8454 265.3502 478.8454 255.80135 C 478.8454 251.02693 479.53843 246.63762 480.92455 242.63326 C 482.3107 238.6289 484.25507 235.1829 486.7578 232.29516 C 489.2605 229.4074 492.2445 227.155 495.7098 225.53785 C 499.1751 223.9207 502.98686 223.11215 507.1452 223.11215 C 523.31664 223.11215 531.4022 232.1603 531.4022 250.2569 Z M 491.4359 247.9467 L 519.1582 247.9467 C 519.1582 243.2493 518.15714 239.43751 516.15497 236.51126 C 514.1528 233.585 510.91856 232.1219 506.45217 232.1219 C 502.0628 232.1219 498.559 233.60425 495.9408 236.569 C 493.32257 239.53377 491.82096 243.3263 491.4359 247.9467 Z" stroke="black" stroke-linecap="round" stroke-linejoin="round" stroke-width="1"/>
          </g>
          <g id="Graphic_93">
            <path d="M 556.8516 224.26725 L 557.7757 230.73578 C 563.16614 225.65333 569.0186 223.11215 575.3331 223.11215 C 583.49584 223.11215 589.67554 225.7881 593.8724 231.14006 C 598.0693 236.49203 600.1677 244.09634 600.1677 253.9532 C 600.1677 258.72762 599.5324 263.11694 598.2618 267.1213 C 596.99116 271.12564 595.0468 274.57164 592.4285 277.4594 C 589.8103 280.34715 586.5568 282.59956 582.668 284.2167 C 578.77914 285.83385 574.21655 286.6424 568.9801 286.6424 C 565.7458 286.6424 562.28056 286.10337 558.58424 285.02527 L 558.58424 303.3913 L 570.71274 305.70148 L 570.71274 312.0545 L 537.7925 312.0545 L 537.7925 305.70148 L 547.0333 303.3913 L 547.0333 233.508 L 537.215 231.19782 L 537.215 224.8448 Z M 558.58424 240.43858 L 558.58424 275.09145 C 560.97145 276.6316 565.01424 277.40164 570.71274 277.40164 C 582.26375 277.40164 588.0392 269.70108 588.0392 254.29973 C 588.0392 247.52313 586.8071 242.17125 584.3429 238.2439 C 581.87865 234.31656 578.1054 232.35291 573.0229 232.35291 C 570.0967 232.35291 567.3437 233.0267 564.764 234.37433 C 562.1843 235.72195 560.1244 237.74335 558.58424 240.43858 Z" fill="black"/>
            <path d="M 556.8516 224.26725 L 557.7757 230.73578 C 563.16614 225.65333 569.0186 223.11215 575.3331 223.11215 C 583.49584 223.11215 589.67554 225.7881 593.8724 231.14006 C 598.0693 236.49203 600.1677 244.09634 600.1677 253.9532 C 600.1677 258.72762 599.5324 263.11694 598.2618 267.1213 C 596.99116 271.12564 595.0468 274.57164 592.4285 277.4594 C 589.8103 280.34715 586.5568 282.59956 582.668 284.2167 C 578.77914 285.83385 574.21655 286.6424 568.9801 286.6424 C 565.7458 286.6424 562.28056 286.10337 558.58424 285.02527 L 558.58424 303.3913 L 570.71274 305.70148 L 570.71274 312.0545 L 537.7925 312.0545 L 537.7925 305.70148 L 547.0333 303.3913 L 547.0333 233.508 L 537.215 231.19782 L 537.215 224.8448 Z M 558.58424 240.43858 L 558.58424 275.09145 C 560.97145 276.6316 565.01424 277.40164 570.71274 277.40164 C 582.26375 277.40164 588.0392 269.70108 588.0392 254.29973 C 588.0392 247.52313 586.8071 242.17125 584.3429 238.2439 C 581.87865 234.31656 578.1054 232.35291 573.0229 232.35291 C 570.0967 232.35291 567.3437 233.0267 564.764 234.37433 C 562.1843 235.72195 560.1244 237.74335 558.58424 240.43858 Z" stroke="black" stroke-linecap="round" stroke-linejoin="round" stroke-width="1"/>
          </g>
          <g id="Graphic_92">
            <path d="M 613.2836 227.73253 C 621.6003 224.65226 629.2239 223.11215 636.1545 223.11215 C 642.9311 223.11215 648.129 224.479 651.7483 227.21274 C 655.3676 229.94648 657.1772 234.54756 657.1772 241.01613 L 657.1772 276.24654 L 666.418 278.55674 L 666.418 284.90976 L 648.514 285.4873 L 646.0883 277.40164 C 639.9278 283.56218 633.8443 286.6424 627.8378 286.6424 C 621.8313 286.6424 617.32645 285.1408 614.3232 282.13753 C 611.3199 279.13427 609.8183 274.86046 609.8183 269.31597 C 609.8183 257.37992 618.67396 251.412 636.3855 251.412 L 645.6263 251.412 L 645.6263 242.17123 C 645.6263 235.24062 641.9685 231.77537 634.6529 231.77537 C 630.4945 231.77537 627.06775 232.1989 624.3725 233.04597 L 622.9864 233.508 L 621.3693 242.17123 L 613.86115 242.17123 Z M 645.6263 258.9201 L 637.5406 258.9201 C 631.7651 258.9201 627.66455 259.67092 625.23884 261.17255 C 622.8131 262.67418 621.6003 265.0036 621.6003 268.16088 C 621.6003 271.16414 622.3126 273.45506 623.7372 275.0337 C 625.16184 276.61233 627.22174 277.40164 629.917 277.40164 C 631.2261 277.40164 632.5544 277.17062 633.90205 276.70858 C 635.2497 276.24654 636.5588 275.669 637.8294 274.97594 C 639.1 274.28288 640.2358 273.53207 641.2369 272.7235 C 642.238 271.91493 643.04656 271.16413 643.6626 270.47107 L 645.6263 268.16088 Z" fill="black"/>
            <path d="M 613.2836 227.73253 C 621.6003 224.65226 629.2239 223.11215 636.1545 223.11215 C 642.9311 223.11215 648.129 224.479 651.7483 227.21274 C 655.3676 229.94648 657.1772 234.54756 657.1772 241.01613 L 657.1772 276.24654 L 666.418 278.55674 L 666.418 284.90976 L 648.514 285.4873 L 646.0883 277.40164 C 639.9278 283.56218 633.8443 286.6424 627.8378 286.6424 C 621.8313 286.6424 617.32645 285.1408 614.3232 282.13753 C 611.3199 279.13427 609.8183 274.86046 609.8183 269.31597 C 609.8183 257.37992 618.67396 251.412 636.3855 251.412 L 645.6263 251.412 L 645.6263 242.17123 C 645.6263 235.24062 641.9685 231.77537 634.6529 231.77537 C 630.4945 231.77537 627.06775 232.1989 624.3725 233.04597 L 622.9864 233.508 L 621.3693 242.17123 L 613.86115 242.17123 Z M 645.6263 258.9201 L 637.5406 258.9201 C 631.7651 258.9201 627.66455 259.67092 625.23884 261.17255 C 622.8131 262.67418 621.6003 265.0036 621.6003 268.16088 C 621.6003 271.16414 622.3126 273.45506 623.7372 275.0337 C 625.16184 276.61233 627.22174 277.40164 629.917 277.40164 C 631.2261 277.40164 632.5544 277.17062 633.90205 276.70858 C 635.2497 276.24654 636.5588 275.669 637.8294 274.97594 C 639.1 274.28288 640.2358 273.53207 641.2369 272.7235 C 642.238 271.91493 643.04656 271.16413 643.6626 270.47107 L 645.6263 268.16088 Z" stroke="black" stroke-linecap="round" stroke-linejoin="round" stroke-width="1"/>
          </g>
          <g id="Graphic_91">
            <path d="M 693.5627 224.26725 L 694.6023 232.69944 C 700.3008 226.30788 706.11475 223.11215 712.0443 223.11215 C 715.20154 223.11215 718.2433 223.57418 721.1695 224.49826 L 722.4401 224.8448 L 721.8626 241.59368 L 714.3545 241.59368 L 712.6218 232.93046 C 705.9992 232.93046 700.4163 235.93368 695.8729 241.9402 L 695.8729 276.24654 L 707.4239 279.1343 L 707.4239 285.4873 L 674.5037 285.4873 L 674.5037 279.1343 L 684.322 276.24654 L 684.322 233.508 L 674.5037 231.19782 L 674.5037 224.8448 Z" fill="black"/>
            <path d="M 693.5627 224.26725 L 694.6023 232.69944 C 700.3008 226.30788 706.11475 223.11215 712.0443 223.11215 C 715.20154 223.11215 718.2433 223.57418 721.1695 224.49826 L 722.4401 224.8448 L 721.8626 241.59368 L 714.3545 241.59368 L 712.6218 232.93046 C 705.9992 232.93046 700.4163 235.93368 695.8729 241.9402 L 695.8729 276.24654 L 707.4239 279.1343 L 707.4239 285.4873 L 674.5037 285.4873 L 674.5037 279.1343 L 684.322 276.24654 L 684.322 233.508 L 674.5037 231.19782 L 674.5037 224.8448 Z" stroke="black" stroke-linecap="round" stroke-linejoin="round" stroke-width="1"/>
          </g>
          <g id="Graphic_90">
            <path d="M 750.8704 207.9804 L 750.8704 224.8448 L 767.6193 224.8448 L 767.6193 233.508 L 750.8704 233.508 L 750.8704 270.58658 C 750.8704 275.284 752.7955 277.63266 756.6459 277.63266 C 759.1101 277.63266 762.1133 276.6701 765.6556 274.74492 L 768.7744 280.86693 C 763.5379 284.71726 758.1475 286.6424 752.603 286.6424 C 748.6757 286.6424 745.47995 285.35256 743.0157 282.77283 C 740.5515 280.1931 739.3194 275.90005 739.3194 269.89352 L 739.3194 233.508 L 727.7685 233.508 L 727.7685 225.9999 L 739.3194 224.8448 L 739.3194 210.2906 Z" fill="black"/>
            <path d="M 750.8704 207.9804 L 750.8704 224.8448 L 767.6193 224.8448 L 767.6193 233.508 L 750.8704 233.508 L 750.8704 270.58658 C 750.8704 275.284 752.7955 277.63266 756.6459 277.63266 C 759.1101 277.63266 762.1133 276.6701 765.6556 274.74492 L 768.7744 280.86693 C 763.5379 284.71726 758.1475 286.6424 752.603 286.6424 C 748.6757 286.6424 745.47995 285.35256 743.0157 282.77283 C 740.5515 280.1931 739.3194 275.90005 739.3194 269.89352 L 739.3194 233.508 L 727.7685 233.508 L 727.7685 225.9999 L 739.3194 224.8448 L 739.3194 210.2906 Z" stroke="black" stroke-linecap="round" stroke-linejoin="round" stroke-width="1"/>
          </g>
          <g id="Graphic_89">
            <path d="M 794.764 224.26725 L 795.8036 232.46842 C 796.8817 231.46734 798.1908 230.4085 799.7309 229.2919 C 801.2711 228.1753 802.9652 227.155 804.8133 226.2309 C 806.6615 225.30683 808.6059 224.55602 810.6466 223.97847 C 812.6873 223.40092 814.7087 223.11215 816.7108 223.11215 C 824.4885 223.11215 829.8404 226.4234 832.7667 233.04597 C 834.1528 231.65985 835.7699 230.37 837.6181 229.1764 C 839.4662 227.9828 841.3721 226.92397 843.3358 225.9999 C 845.2995 225.0758 847.2246 224.3635 849.1113 223.86296 C 850.9979 223.36242 852.7113 223.11215 854.2514 223.11215 C 866.1875 223.11215 872.1554 230.04265 872.1554 243.90387 L 872.1554 276.24654 L 880.8186 279.1343 L 880.8186 285.4873 L 853.0963 285.4873 L 853.0963 279.1343 L 860.6045 276.24654 L 860.6045 245.05896 C 860.6045 240.8236 859.8729 237.74337 858.4098 235.8182 C 856.9466 233.89303 854.5595 232.93046 851.2482 232.93046 C 849.631 232.93046 848.0717 233.14223 846.57 233.56576 C 845.0684 233.9893 843.6631 234.5476 842.3539 235.24065 C 841.0448 235.9337 839.8898 236.68452 838.8887 237.4931 C 837.8876 238.30166 837.079 239.09097 836.463 239.86104 L 834.6148 242.17123 L 834.6148 276.24654 L 842.1229 279.1343 L 842.1229 285.4873 L 815.5557 285.4873 L 815.5557 279.1343 L 823.0639 276.24654 L 823.0639 245.05896 C 823.0639 240.8236 822.3323 237.74337 820.8692 235.8182 C 819.406 233.89303 817.0189 232.93046 813.7076 232.93046 C 812.0904 232.93046 810.5311 233.14223 809.0294 233.56576 C 807.5278 233.9893 806.1225 234.5476 804.8133 235.24065 C 803.5042 235.9337 802.3491 236.68452 801.3481 237.4931 C 800.347 238.30166 799.5384 239.09097 798.9224 239.86104 L 797.0742 242.17123 L 797.0742 276.24654 L 804.5823 279.1343 L 804.5823 285.4873 L 775.7049 285.4873 L 775.7049 279.1343 L 785.52325 276.24654 L 785.52325 233.508 L 775.7049 231.19782 L 775.7049 224.8448 Z" fill="black"/>
            <path d="M 794.764 224.26725 L 795.8036 232.46842 C 796.8817 231.46734 798.1908 230.4085 799.7309 229.2919 C 801.2711 228.1753 802.9652 227.155 804.8133 226.2309 C 806.6615 225.30683 808.6059 224.55602 810.6466 223.97847 C 812.6873 223.40092 814.7087 223.11215 816.7108 223.11215 C 824.4885 223.11215 829.8404 226.4234 832.7667 233.04597 C 834.1528 231.65985 835.7699 230.37 837.6181 229.1764 C 839.4662 227.9828 841.3721 226.92397 843.3358 225.9999 C 845.2995 225.0758 847.2246 224.3635 849.1113 223.86296 C 850.9979 223.36242 852.7113 223.11215 854.2514 223.11215 C 866.1875 223.11215 872.1554 230.04265 872.1554 243.90387 L 872.1554 276.24654 L 880.8186 279.1343 L 880.8186 285.4873 L 853.0963 285.4873 L 853.0963 279.1343 L 860.6045 276.24654 L 860.6045 245.05896 C 860.6045 240.8236 859.8729 237.74337 858.4098 235.8182 C 856.9466 233.89303 854.5595 232.93046 851.2482 232.93046 C 849.631 232.93046 848.0717 233.14223 846.57 233.56576 C 845.0684 233.9893 843.6631 234.5476 842.3539 235.24065 C 841.0448 235.9337 839.8898 236.68452 838.8887 237.4931 C 837.8876 238.30166 837.079 239.09097 836.463 239.86104 L 834.6148 242.17123 L 834.6148 276.24654 L 842.1229 279.1343 L 842.1229 285.4873 L 815.5557 285.4873 L 815.5557 279.1343 L 823.0639 276.24654 L 823.0639 245.05896 C 823.0639 240.8236 822.3323 237.74337 820.8692 235.8182 C 819.406 233.89303 817.0189 232.93046 813.7076 232.93046 C 812.0904 232.93046 810.5311 233.14223 809.0294 233.56576 C 807.5278 233.9893 806.1225 234.5476 804.8133 235.24065 C 803.5042 235.9337 802.3491 236.68452 801.3481 237.4931 C 800.347 238.30166 799.5384 239.09097 798.9224 239.86104 L 797.0742 242.17123 L 797.0742 276.24654 L 804.5823 279.1343 L 804.5823 285.4873 L 775.7049 285.4873 L 775.7049 279.1343 L 785.52325 276.24654 L 785.52325 233.508 L 775.7049 231.19782 L 775.7049 224.8448 Z" stroke="black" stroke-linecap="round" stroke-linejoin="round" stroke-width="1"/>
          </g>
          <g id="Graphic_88">
            <path d="M 939.7658 256.3789 L 899.915 256.60992 C 899.915 262.92447 901.4358 267.96834 904.4776 271.74167 C 907.5194 275.515 911.5814 277.40164 916.6639 277.40164 C 918.358 277.40164 920.0521 277.24763 921.7463 276.9396 C 923.4404 276.63157 925.0383 276.24655 926.5399 275.7845 C 928.0416 275.32247 929.4084 274.80268 930.6405 274.22513 C 931.8726 273.64758 932.9122 273.0893 933.7593 272.55024 L 936.0695 271.0486 L 940.1123 277.0551 C 937.4941 279.1343 935.0876 280.77066 932.893 281.96427 C 930.6983 283.15787 928.1186 284.23595 925.1538 285.19854 C 922.189 286.16112 918.9741 286.6424 915.5088 286.6424 C 906.422 286.6424 899.53 283.88945 894.8325 278.38347 C 890.1351 272.8775 887.7865 265.3502 887.7865 255.80135 C 887.7865 251.02693 888.4795 246.63762 889.8656 242.63326 C 891.2518 238.6289 893.1961 235.1829 895.6989 232.29516 C 898.2016 229.4074 901.1856 227.155 904.6509 225.53785 C 908.1162 223.9207 911.9279 223.11215 916.0863 223.11215 C 932.2577 223.11215 940.3433 232.1603 940.3433 250.2569 Z M 900.377 247.9467 L 928.0993 247.9467 C 928.0993 243.2493 927.0982 239.43751 925.096 236.51126 C 923.0939 233.585 919.8596 232.1219 915.3932 232.1219 C 911.0039 232.1219 907.5001 233.60425 904.8819 236.569 C 902.2636 239.53377 900.762 243.3263 900.377 247.9467 Z" fill="black"/>
            <path d="M 939.7658 256.3789 L 899.915 256.60992 C 899.915 262.92447 901.4358 267.96834 904.4776 271.74167 C 907.5194 275.515 911.5814 277.40164 916.6639 277.40164 C 918.358 277.40164 920.0521 277.24763 921.7463 276.9396 C 923.4404 276.63157 925.0383 276.24655 926.5399 275.7845 C 928.0416 275.32247 929.4084 274.80268 930.6405 274.22513 C 931.8726 273.64758 932.9122 273.0893 933.7593 272.55024 L 936.0695 271.0486 L 940.1123 277.0551 C 937.4941 279.1343 935.0876 280.77066 932.893 281.96427 C 930.6983 283.15787 928.1186 284.23595 925.1538 285.19854 C 922.189 286.16112 918.9741 286.6424 915.5088 286.6424 C 906.422 286.6424 899.53 283.88945 894.8325 278.38347 C 890.1351 272.8775 887.7865 265.3502 887.7865 255.80135 C 887.7865 251.02693 888.4795 246.63762 889.8656 242.63326 C 891.2518 238.6289 893.1961 235.1829 895.6989 232.29516 C 898.2016 229.4074 901.1856 227.155 904.6509 225.53785 C 908.1162 223.9207 911.9279 223.11215 916.0863 223.11215 C 932.2577 223.11215 940.3433 232.1603 940.3433 250.2569 Z M 900.377 247.9467 L 928.0993 247.9467 C 928.0993 243.2493 927.0982 239.43751 925.096 236.51126 C 923.0939 233.585 919.8596 232.1219 915.3932 232.1219 C 911.0039 232.1219 907.5001 233.60425 904.8819 236.569 C 902.2636 239.53377 900.762 243.3263 900.377 247.9467 Z" stroke="black" stroke-linecap="round" stroke-linejoin="round" stroke-width="1"/>
          </g>
          <g id="Graphic_87">
            <path d="M 967.3204 224.26725 L 968.36 232.46842 C 969.13 231.85237 970.2081 231.0053 971.5942 229.9272 C 972.9804 228.84912 974.6167 227.80954 976.5034 226.80846 C 978.39 225.80737 980.4692 224.94105 982.7409 224.2095 C 985.0126 223.47793 987.3805 223.11215 989.8447 223.11215 C 996.0823 223.11215 1000.7219 224.94103 1003.7636 228.59885 C 1006.8054 232.25667 1008.3263 237.3583 1008.3263 243.90387 L 1008.3263 276.24654 L 1016.9895 279.1343 L 1016.9895 285.4873 L 989.2672 285.4873 L 989.2672 279.1343 L 996.7753 276.24654 L 996.7753 245.05896 C 996.7753 240.9006 995.9668 237.83963 994.3496 235.87596 C 992.7325 233.91228 990.2683 232.93046 986.957 232.93046 C 985.3399 232.93046 983.742 233.14223 982.1634 233.56576 C 980.5847 233.9893 979.1216 234.5476 977.774 235.24065 C 976.4264 235.9337 975.2328 236.68452 974.1932 237.4931 C 973.1536 238.30166 972.2873 239.09097 971.5942 239.86104 L 969.6306 242.17123 L 969.6306 276.24654 L 977.1387 279.1343 L 977.1387 285.4873 L 948.2613 285.4873 L 948.2613 279.1343 L 958.0796 276.24654 L 958.0796 233.508 L 948.2613 231.19782 L 948.2613 224.8448 Z" fill="black"/>
            <path d="M 967.3204 224.26725 L 968.36 232.46842 C 969.13 231.85237 970.2081 231.0053 971.5942 229.9272 C 972.9804 228.84912 974.6167 227.80954 976.5034 226.80846 C 978.39 225.80737 980.4692 224.94105 982.7409 224.2095 C 985.0126 223.47793 987.3805 223.11215 989.8447 223.11215 C 996.0823 223.11215 1000.7219 224.94103 1003.7636 228.59885 C 1006.8054 232.25667 1008.3263 237.3583 1008.3263 243.90387 L 1008.3263 276.24654 L 1016.9895 279.1343 L 1016.9895 285.4873 L 989.2672 285.4873 L 989.2672 279.1343 L 996.7753 276.24654 L 996.7753 245.05896 C 996.7753 240.9006 995.9668 237.83963 994.3496 235.87596 C 992.7325 233.91228 990.2683 232.93046 986.957 232.93046 C 985.3399 232.93046 983.742 233.14223 982.1634 233.56576 C 980.5847 233.9893 979.1216 234.5476 977.774 235.24065 C 976.4264 235.9337 975.2328 236.68452 974.1932 237.4931 C 973.1536 238.30166 972.2873 239.09097 971.5942 239.86104 L 969.6306 242.17123 L 969.6306 276.24654 L 977.1387 279.1343 L 977.1387 285.4873 L 948.2613 285.4873 L 948.2613 279.1343 L 958.0796 276.24654 L 958.0796 233.508 L 948.2613 231.19782 L 948.2613 224.8448 Z" stroke="black" stroke-linecap="round" stroke-linejoin="round" stroke-width="1"/>
          </g>
          <g id="Graphic_86">
            <path d="M 1045.1217 207.9804 L 1045.1217 224.8448 L 1061.8705 224.8448 L 1061.8705 233.508 L 1045.1217 233.508 L 1045.1217 270.58658 C 1045.1217 275.284 1047.0468 277.63266 1050.8971 277.63266 C 1053.3613 277.63266 1056.3646 276.6701 1059.9069 274.74492 L 1063.0256 280.86693 C 1057.7892 284.71726 1052.3988 286.6424 1046.8543 286.6424 C 1042.927 286.6424 1039.7312 285.35256 1037.267 282.77283 C 1034.8028 280.1931 1033.5707 275.90005 1033.5707 269.89352 L 1033.5707 233.508 L 1022.0197 233.508 L 1022.0197 225.9999 L 1033.5707 224.8448 L 1033.5707 210.2906 Z" fill="black"/>
            <path d="M 1045.1217 207.9804 L 1045.1217 224.8448 L 1061.8705 224.8448 L 1061.8705 233.508 L 1045.1217 233.508 L 1045.1217 270.58658 C 1045.1217 275.284 1047.0468 277.63266 1050.8971 277.63266 C 1053.3613 277.63266 1056.3646 276.6701 1059.9069 274.74492 L 1063.0256 280.86693 C 1057.7892 284.71726 1052.3988 286.6424 1046.8543 286.6424 C 1042.927 286.6424 1039.7312 285.35256 1037.267 282.77283 C 1034.8028 280.1931 1033.5707 275.90005 1033.5707 269.89352 L 1033.5707 233.508 L 1022.0197 233.508 L 1022.0197 225.9999 L 1033.5707 224.8448 L 1033.5707 210.2906 Z" stroke="black" stroke-linecap="round" stroke-linejoin="round" stroke-width="1"/>
          </g>
          <g id="Graphic_85">
            <path d="M 395.26863 394.4128 C 395.26863 389.4844 395.98093 384.9988 397.40556 380.95596 C 398.8302 376.9131 400.8516 373.4671 403.4698 370.61785 C 406.08804 367.7686 409.1875 365.57394 412.76833 364.0338 C 416.34914 362.49367 420.2957 361.7236 424.60806 361.7236 C 433.2328 361.7236 439.9323 364.4573 444.7067 369.9248 C 449.48114 375.39227 451.8683 382.97732 451.8683 392.68018 C 451.8683 397.4546 451.17526 401.82466 449.78914 405.7905 C 448.403 409.75636 446.45863 413.1831 443.9559 416.07086 C 441.4532 418.9586 438.41147 421.21103 434.83065 422.82817 C 431.24984 424.4453 427.2648 425.25387 422.8754 425.25387 C 414.09664 425.25387 407.3009 422.6357 402.488 417.3992 C 397.67506 412.16276 395.26863 404.5007 395.26863 394.4128 Z M 424.146 370.9644 C 412.98004 370.9644 407.39713 378.47242 407.39713 393.48874 C 407.39713 408.50506 412.78753 416.0131 423.56847 416.0131 C 429.18996 416.0131 433.2905 414.08797 435.87024 410.23763 C 438.44997 406.3873 439.7398 400.61187 439.7398 392.9112 C 439.7398 378.2799 434.54193 370.9644 424.146 370.9644 Z" fill="black"/>
            <path d="M 395.26863 394.4128 C 395.26863 389.4844 395.98093 384.9988 397.40556 380.95596 C 398.8302 376.9131 400.8516 373.4671 403.4698 370.61785 C 406.08804 367.7686 409.1875 365.57394 412.76833 364.0338 C 416.34914 362.49367 420.2957 361.7236 424.60806 361.7236 C 433.2328 361.7236 439.9323 364.4573 444.7067 369.9248 C 449.48114 375.39227 451.8683 382.97732 451.8683 392.68018 C 451.8683 397.4546 451.17526 401.82466 449.78914 405.7905 C 448.403 409.75636 446.45863 413.1831 443.9559 416.07086 C 441.4532 418.9586 438.41147 421.21103 434.83065 422.82817 C 431.24984 424.4453 427.2648 425.25387 422.8754 425.25387 C 414.09664 425.25387 407.3009 422.6357 402.488 417.3992 C 397.67506 412.16276 395.26863 404.5007 395.26863 394.4128 Z M 424.146 370.9644 C 412.98004 370.9644 407.39713 378.47242 407.39713 393.48874 C 407.39713 408.50506 412.78753 416.0131 423.56847 416.0131 C 429.18996 416.0131 433.2905 414.08797 435.87024 410.23763 C 438.44997 406.3873 439.7398 400.61187 439.7398 392.9112 C 439.7398 378.2799 434.54193 370.9644 424.146 370.9644 Z" stroke="black" stroke-linecap="round" stroke-linejoin="round" stroke-width="1"/>
          </g>
          <g id="Graphic_84">
            <path d="M 463.82914 364.61135 L 474.225 363.45626 L 474.225 356.5257 C 474.225 349.51807 476.07313 344.01217 479.76946 340.0078 C 483.4658 336.00347 488.74067 334.00132 495.59427 334.00132 C 498.82855 334.00132 501.8895 334.3286 504.7773 334.98315 C 507.66503 335.6377 509.7249 336.3115 510.95704 337.00457 L 512.9207 338.04416 L 512.9207 352.48285 L 504.83503 352.48285 L 503.1024 343.2421 C 501.1772 342.85705 498.559 342.66454 495.24774 342.66454 C 488.9332 342.66454 485.77596 346.5148 485.77596 354.2155 L 485.77596 363.45626 L 501.0232 363.45626 L 500.6767 372.11947 L 485.77596 372.11947 L 485.77596 414.858 L 496.9804 417.74575 L 496.9804 424.09877 L 464.4067 424.09877 L 464.4067 417.74575 L 474.225 414.858 L 474.225 372.11947 L 463.82914 372.11947 Z" fill="black"/>
            <path d="M 463.82914 364.61135 L 474.225 363.45626 L 474.225 356.5257 C 474.225 349.51807 476.07313 344.01217 479.76946 340.0078 C 483.4658 336.00347 488.74067 334.00132 495.59427 334.00132 C 498.82855 334.00132 501.8895 334.3286 504.7773 334.98315 C 507.66503 335.6377 509.7249 336.3115 510.95704 337.00457 L 512.9207 338.04416 L 512.9207 352.48285 L 504.83503 352.48285 L 503.1024 343.2421 C 501.1772 342.85705 498.559 342.66454 495.24774 342.66454 C 488.9332 342.66454 485.77596 346.5148 485.77596 354.2155 L 485.77596 363.45626 L 501.0232 363.45626 L 500.6767 372.11947 L 485.77596 372.11947 L 485.77596 414.858 L 496.9804 417.74575 L 496.9804 424.09877 L 464.4067 424.09877 L 464.4067 417.74575 L 474.225 414.858 L 474.225 372.11947 L 463.82914 372.11947 Z" stroke="black" stroke-linecap="round" stroke-linejoin="round" stroke-width="1"/>
          </g>
          <g id="Graphic_83">
            <path d="M 537.75525 424.09877 L 537.75525 417.1682 L 547.57357 414.858 L 547.57357 352.48285 L 537.75525 350.17266 L 537.75525 343.81963 L 559.1245 343.2421 L 572.4081 343.2421 C 579.9548 343.2421 585.9805 344.9362 590.4854 348.3245 C 594.99026 351.7128 597.2427 356.75667 597.2427 363.45626 C 597.2427 373.39013 592.2373 379.6276 582.2264 382.1688 C 588.23296 383.55493 592.71854 385.8651 595.6833 389.0994 C 598.64806 392.33366 600.1304 396.29945 600.1304 400.99686 C 600.1304 416.3982 590.3122 424.09877 570.6755 424.09877 Z M 559.1245 386.55817 L 559.1245 414.858 L 571.253 414.858 C 582.419 414.858 588.0019 410.4302 588.0019 401.5744 C 588.0019 396.02992 586.32704 392.14114 582.97725 389.90795 C 579.62745 387.67475 574.5643 386.55817 567.78774 386.55817 Z M 559.1245 352.48285 L 559.1245 377.89495 L 567.78774 377.89495 C 573.1782 377.89495 577.4135 376.7976 580.4938 374.60293 C 583.57406 372.40824 585.1142 369.23176 585.1142 365.0734 C 585.1142 360.838 583.8821 357.6808 581.4179 355.6016 C 578.95365 353.52243 575.7579 352.48285 571.8306 352.48285 Z" fill="black"/>
            <path d="M 537.75525 424.09877 L 537.75525 417.1682 L 547.57357 414.858 L 547.57357 352.48285 L 537.75525 350.17266 L 537.75525 343.81963 L 559.1245 343.2421 L 572.4081 343.2421 C 579.9548 343.2421 585.9805 344.9362 590.4854 348.3245 C 594.99026 351.7128 597.2427 356.75667 597.2427 363.45626 C 597.2427 373.39013 592.2373 379.6276 582.2264 382.1688 C 588.23296 383.55493 592.71854 385.8651 595.6833 389.0994 C 598.64806 392.33366 600.1304 396.29945 600.1304 400.99686 C 600.1304 416.3982 590.3122 424.09877 570.6755 424.09877 Z M 559.1245 386.55817 L 559.1245 414.858 L 571.253 414.858 C 582.419 414.858 588.0019 410.4302 588.0019 401.5744 C 588.0019 396.02992 586.32704 392.14114 582.97725 389.90795 C 579.62745 387.67475 574.5643 386.55817 567.78774 386.55817 Z M 559.1245 352.48285 L 559.1245 377.89495 L 567.78774 377.89495 C 573.1782 377.89495 577.4135 376.7976 580.4938 374.60293 C 583.57406 372.40824 585.1142 369.23176 585.1142 365.0734 C 585.1142 360.838 583.8821 357.6808 581.4179 355.6016 C 578.95365 353.52243 575.7579 352.48285 571.8306 352.48285 Z" stroke="black" stroke-linecap="round" stroke-linejoin="round" stroke-width="1"/>
          </g>
          <g id="Graphic_82">
            <path d="M 613.8239 366.344 C 622.1406 363.26373 629.7642 361.7236 636.6948 361.7236 C 643.4714 361.7236 648.66925 363.09046 652.2886 365.8242 C 655.9079 368.55794 657.7175 373.15903 657.7175 379.6276 L 657.7175 414.858 L 666.9583 417.1682 L 666.9583 423.52123 L 649.0543 424.09877 L 646.6286 416.0131 C 640.46806 422.17365 634.3846 425.25387 628.3781 425.25387 C 622.37156 425.25387 617.8667 423.75226 614.8635 420.749 C 611.8602 417.74573 610.3586 413.4719 610.3586 407.92744 C 610.3586 395.9914 619.21424 390.02346 636.9258 390.02346 L 646.16656 390.02346 L 646.16656 380.7827 C 646.16656 373.8521 642.5088 370.38683 635.19315 370.38683 C 631.0348 370.38683 627.60804 370.81036 624.9128 371.65744 L 623.5267 372.11947 L 621.90955 380.7827 L 614.4014 380.7827 Z M 646.16656 397.5316 L 638.0809 397.5316 C 632.3054 397.5316 628.2048 398.2824 625.7791 399.784 C 623.3534 401.28564 622.1406 403.61506 622.1406 406.77234 C 622.1406 409.7756 622.8529 412.0665 624.2775 413.64516 C 625.7021 415.2238 627.762 416.0131 630.45726 416.0131 C 631.7664 416.0131 633.0947 415.7821 634.44234 415.32005 C 635.78996 414.858 637.09905 414.28047 638.3697 413.5874 C 639.6403 412.89434 640.7761 412.14354 641.7772 411.33497 C 642.7783 410.5264 643.58684 409.7756 644.2029 409.08253 L 646.16656 406.77234 Z" fill="black"/>
            <path d="M 613.8239 366.344 C 622.1406 363.26373 629.7642 361.7236 636.6948 361.7236 C 643.4714 361.7236 648.66925 363.09046 652.2886 365.8242 C 655.9079 368.55794 657.7175 373.15903 657.7175 379.6276 L 657.7175 414.858 L 666.9583 417.1682 L 666.9583 423.52123 L 649.0543 424.09877 L 646.6286 416.0131 C 640.46806 422.17365 634.3846 425.25387 628.3781 425.25387 C 622.37156 425.25387 617.8667 423.75226 614.8635 420.749 C 611.8602 417.74573 610.3586 413.4719 610.3586 407.92744 C 610.3586 395.9914 619.21424 390.02346 636.9258 390.02346 L 646.16656 390.02346 L 646.16656 380.7827 C 646.16656 373.8521 642.5088 370.38683 635.19315 370.38683 C 631.0348 370.38683 627.60804 370.81036 624.9128 371.65744 L 623.5267 372.11947 L 621.90955 380.7827 L 614.4014 380.7827 Z M 646.16656 397.5316 L 638.0809 397.5316 C 632.3054 397.5316 628.2048 398.2824 625.7791 399.784 C 623.3534 401.28564 622.1406 403.61506 622.1406 406.77234 C 622.1406 409.7756 622.8529 412.0665 624.2775 413.64516 C 625.7021 415.2238 627.762 416.0131 630.45726 416.0131 C 631.7664 416.0131 633.0947 415.7821 634.44234 415.32005 C 635.78996 414.858 637.09905 414.28047 638.3697 413.5874 C 639.6403 412.89434 640.7761 412.14354 641.7772 411.33497 C 642.7783 410.5264 643.58684 409.7756 644.2029 409.08253 L 646.16656 406.77234 Z" stroke="black" stroke-linecap="round" stroke-linejoin="round" stroke-width="1"/>
          </g>
          <g id="Graphic_81">
            <path d="M 728.3833 335.1564 L 728.3833 414.858 L 738.2016 417.1682 L 738.2016 423.52123 L 718.565 424.09877 L 717.6409 417.51473 C 712.4814 422.6742 706.1285 425.25387 698.5818 425.25387 C 691.1122 425.25387 685.356 422.5779 681.3131 417.22596 C 677.2703 411.874 675.2489 404.4622 675.2489 394.99037 C 675.2489 384.9025 677.8286 376.83614 682.988 370.7911 C 688.1475 364.7461 695.771 361.7236 705.8589 361.7236 C 709.63225 361.7236 713.29 362.33966 716.8323 363.57177 L 716.8323 344.3972 L 707.014 342.087 L 707.014 335.73396 Z M 716.8323 407.3499 L 716.8323 373.27457 C 714.1371 371.73443 710.0943 370.9644 704.7038 370.9644 C 693.1528 370.9644 687.3774 378.66494 687.3774 394.0663 C 687.3774 400.8429 688.5517 406.19477 690.9004 410.1221 C 693.2491 414.04946 696.88765 416.0131 701.8161 416.0131 C 705.5894 416.0131 708.78515 415.01203 711.4034 413.00986 C 713.8676 411.0077 715.6772 409.12104 716.8323 407.3499 Z" fill="black"/>
            <path d="M 728.3833 335.1564 L 728.3833 414.858 L 738.2016 417.1682 L 738.2016 423.52123 L 718.565 424.09877 L 717.6409 417.51473 C 712.4814 422.6742 706.1285 425.25387 698.5818 425.25387 C 691.1122 425.25387 685.356 422.5779 681.3131 417.22596 C 677.2703 411.874 675.2489 404.4622 675.2489 394.99037 C 675.2489 384.9025 677.8286 376.83614 682.988 370.7911 C 688.1475 364.7461 695.771 361.7236 705.8589 361.7236 C 709.63225 361.7236 713.29 362.33966 716.8323 363.57177 L 716.8323 344.3972 L 707.014 342.087 L 707.014 335.73396 Z M 716.8323 407.3499 L 716.8323 373.27457 C 714.1371 371.73443 710.0943 370.9644 704.7038 370.9644 C 693.1528 370.9644 687.3774 378.66494 687.3774 394.0663 C 687.3774 400.8429 688.5517 406.19477 690.9004 410.1221 C 693.2491 414.04946 696.88765 416.0131 701.8161 416.0131 C 705.5894 416.0131 708.78515 415.01203 711.4034 413.00986 C 713.8676 411.0077 715.6772 409.12104 716.8323 407.3499 Z" stroke="black" stroke-linecap="round" stroke-linejoin="round" stroke-width="1"/>
          </g>
          <g id="Graphic_80">
            <path d="M 804.042 417.1682 L 804.042 424.09877 L 772.2769 424.09877 L 772.2769 417.1682 L 782.0952 414.858 L 782.0952 352.48285 L 772.2769 350.17266 L 772.2769 343.81963 L 804.042 343.2421 L 804.042 350.17266 L 794.2237 352.48285 L 794.2237 414.858 Z" fill="black"/>
            <path d="M 804.042 417.1682 L 804.042 424.09877 L 772.2769 424.09877 L 772.2769 417.1682 L 782.0952 414.858 L 782.0952 352.48285 L 772.2769 350.17266 L 772.2769 343.81963 L 804.042 343.2421 L 804.042 350.17266 L 794.2237 352.48285 L 794.2237 414.858 Z" stroke="black" stroke-linecap="round" stroke-linejoin="round" stroke-width="1"/>
          </g>
          <g id="Graphic_79">
            <path d="M 865.5043 335.1564 L 865.5043 414.858 L 875.3226 417.1682 L 875.3226 423.52123 L 855.686 424.09877 L 854.7619 417.51473 C 849.6025 422.6742 843.2495 425.25387 835.7028 425.25387 C 828.2332 425.25387 822.477 422.5779 818.4342 417.22596 C 814.3913 411.874 812.3699 404.4622 812.3699 394.99037 C 812.3699 384.9025 814.9496 376.83614 820.109 370.7911 C 825.2685 364.7461 832.8921 361.7236 842.9799 361.7236 C 846.7533 361.7236 850.411 362.33966 853.9533 363.57177 L 853.9533 344.3972 L 844.135 342.087 L 844.135 335.73396 Z M 853.9533 407.3499 L 853.9533 373.27457 C 851.2581 371.73443 847.2153 370.9644 841.8248 370.9644 C 830.2738 370.9644 824.4984 378.66494 824.4984 394.0663 C 824.4984 400.8429 825.6727 406.19477 828.0214 410.1221 C 830.3702 414.04946 834.0087 416.0131 838.9371 416.0131 C 842.7104 416.0131 845.9062 415.01203 848.5244 413.00986 C 850.9886 411.0077 852.7982 409.12104 853.9533 407.3499 Z" fill="black"/>
            <path d="M 865.5043 335.1564 L 865.5043 414.858 L 875.3226 417.1682 L 875.3226 423.52123 L 855.686 424.09877 L 854.7619 417.51473 C 849.6025 422.6742 843.2495 425.25387 835.7028 425.25387 C 828.2332 425.25387 822.477 422.5779 818.4342 417.22596 C 814.3913 411.874 812.3699 404.4622 812.3699 394.99037 C 812.3699 384.9025 814.9496 376.83614 820.109 370.7911 C 825.2685 364.7461 832.8921 361.7236 842.9799 361.7236 C 846.7533 361.7236 850.411 362.33966 853.9533 363.57177 L 853.9533 344.3972 L 844.135 342.087 L 844.135 335.73396 Z M 853.9533 407.3499 L 853.9533 373.27457 C 851.2581 371.73443 847.2153 370.9644 841.8248 370.9644 C 830.2738 370.9644 824.4984 378.66494 824.4984 394.0663 C 824.4984 400.8429 825.6727 406.19477 828.0214 410.1221 C 830.3702 414.04946 834.0087 416.0131 838.9371 416.0131 C 842.7104 416.0131 845.9062 415.01203 848.5244 413.00986 C 850.9886 411.0077 852.7982 409.12104 853.9533 407.3499 Z" stroke="black" stroke-linecap="round" stroke-linejoin="round" stroke-width="1"/>
          </g>
          <g id="Graphic_78">
            <path d="M 933.3196 394.99037 L 893.4688 395.2214 C 893.4688 401.53594 894.9897 406.5798 898.0314 410.35314 C 901.0732 414.12647 905.1352 416.0131 910.2177 416.0131 C 911.9118 416.0131 913.606 415.8591 915.3001 415.55107 C 916.9942 415.24304 918.5921 414.858 920.0937 414.39597 C 921.5954 413.93393 922.9622 413.41414 924.1943 412.8366 C 925.4264 412.25904 926.466 411.70075 927.3131 411.1617 L 929.6233 409.6601 L 933.6661 415.6666 C 931.0479 417.74576 928.6415 419.38213 926.4468 420.57573 C 924.2521 421.76934 921.6724 422.8474 918.7076 423.81 C 915.7429 424.7726 912.5279 425.25387 909.0626 425.25387 C 899.9758 425.25387 893.0838 422.5009 888.3864 416.99494 C 883.689 411.48895 881.3403 403.96166 881.3403 394.4128 C 881.3403 389.6384 882.0333 385.2491 883.4195 381.24473 C 884.8056 377.2404 886.75 373.79438 889.2527 370.90662 C 891.7554 368.01887 894.7394 365.76646 898.2047 364.1493 C 901.67 362.53217 905.4818 361.7236 909.6401 361.7236 C 925.8115 361.7236 933.8971 370.77177 933.8971 388.86836 Z M 893.9308 386.55817 L 921.6531 386.55817 C 921.6531 381.86076 920.652 378.049 918.6499 375.12272 C 916.6477 372.19647 913.4135 370.73336 908.9471 370.73336 C 904.5577 370.73336 901.0539 372.2157 898.4357 375.1805 C 895.8175 378.14524 894.3159 381.93776 893.9308 386.55817 Z" fill="black"/>
            <path d="M 933.3196 394.99037 L 893.4688 395.2214 C 893.4688 401.53594 894.9897 406.5798 898.0314 410.35314 C 901.0732 414.12647 905.1352 416.0131 910.2177 416.0131 C 911.9118 416.0131 913.606 415.8591 915.3001 415.55107 C 916.9942 415.24304 918.5921 414.858 920.0937 414.39597 C 921.5954 413.93393 922.9622 413.41414 924.1943 412.8366 C 925.4264 412.25904 926.466 411.70075 927.3131 411.1617 L 929.6233 409.6601 L 933.6661 415.6666 C 931.0479 417.74576 928.6415 419.38213 926.4468 420.57573 C 924.2521 421.76934 921.6724 422.8474 918.7076 423.81 C 915.7429 424.7726 912.5279 425.25387 909.0626 425.25387 C 899.9758 425.25387 893.0838 422.5009 888.3864 416.99494 C 883.689 411.48895 881.3403 403.96166 881.3403 394.4128 C 881.3403 389.6384 882.0333 385.2491 883.4195 381.24473 C 884.8056 377.2404 886.75 373.79438 889.2527 370.90662 C 891.7554 368.01887 894.7394 365.76646 898.2047 364.1493 C 901.67 362.53217 905.4818 361.7236 909.6401 361.7236 C 925.8115 361.7236 933.8971 370.77177 933.8971 388.86836 Z M 893.9308 386.55817 L 921.6531 386.55817 C 921.6531 381.86076 920.652 378.049 918.6499 375.12272 C 916.6477 372.19647 913.4135 370.73336 908.9471 370.73336 C 904.5577 370.73336 901.0539 372.2157 898.4357 375.1805 C 895.8175 378.14524 894.3159 381.93776 893.9308 386.55817 Z" stroke="black" stroke-linecap="round" stroke-linejoin="round" stroke-width="1"/>
          </g>
          <g id="Graphic_77">
            <path d="M 946.6032 366.344 C 954.9199 363.26373 962.5435 361.7236 969.4741 361.7236 C 976.2507 361.7236 981.4485 363.09046 985.0679 365.8242 C 988.6872 368.55794 990.4968 373.15903 990.4968 379.6276 L 990.4968 414.858 L 999.7376 417.1682 L 999.7376 423.52123 L 981.8336 424.09877 L 979.4079 416.0131 C 973.2474 422.17365 967.1639 425.25387 961.1574 425.25387 C 955.1509 425.25387 950.646 423.75226 947.6428 420.749 C 944.6395 417.74573 943.1379 413.4719 943.1379 407.92744 C 943.1379 395.9914 951.9935 390.02346 969.7051 390.02346 L 978.9459 390.02346 L 978.9459 380.7827 C 978.9459 373.8521 975.2881 370.38683 967.9725 370.38683 C 963.8141 370.38683 960.3873 370.81036 957.6921 371.65744 L 956.306 372.11947 L 954.6889 380.7827 L 947.1807 380.7827 Z M 978.9459 397.5316 L 970.8602 397.5316 C 965.0847 397.5316 960.9841 398.2824 958.5584 399.784 C 956.1327 401.28564 954.9199 403.61506 954.9199 406.77234 C 954.9199 409.7756 955.6322 412.0665 957.0568 413.64516 C 958.4814 415.2238 960.5413 416.0131 963.2366 416.0131 C 964.5457 416.0131 965.874 415.7821 967.2216 415.32005 C 968.5693 414.858 969.8784 414.28047 971.149 413.5874 C 972.4196 412.89434 973.5554 412.14354 974.5565 411.33497 C 975.5576 410.5264 976.3661 409.7756 976.9822 409.08253 L 978.9459 406.77234 Z" fill="black"/>
            <path d="M 946.6032 366.344 C 954.9199 363.26373 962.5435 361.7236 969.4741 361.7236 C 976.2507 361.7236 981.4485 363.09046 985.0679 365.8242 C 988.6872 368.55794 990.4968 373.15903 990.4968 379.6276 L 990.4968 414.858 L 999.7376 417.1682 L 999.7376 423.52123 L 981.8336 424.09877 L 979.4079 416.0131 C 973.2474 422.17365 967.1639 425.25387 961.1574 425.25387 C 955.1509 425.25387 950.646 423.75226 947.6428 420.749 C 944.6395 417.74573 943.1379 413.4719 943.1379 407.92744 C 943.1379 395.9914 951.9935 390.02346 969.7051 390.02346 L 978.9459 390.02346 L 978.9459 380.7827 C 978.9459 373.8521 975.2881 370.38683 967.9725 370.38683 C 963.8141 370.38683 960.3873 370.81036 957.6921 371.65744 L 956.306 372.11947 L 954.6889 380.7827 L 947.1807 380.7827 Z M 978.9459 397.5316 L 970.8602 397.5316 C 965.0847 397.5316 960.9841 398.2824 958.5584 399.784 C 956.1327 401.28564 954.9199 403.61506 954.9199 406.77234 C 954.9199 409.7756 955.6322 412.0665 957.0568 413.64516 C 958.4814 415.2238 960.5413 416.0131 963.2366 416.0131 C 964.5457 416.0131 965.874 415.7821 967.2216 415.32005 C 968.5693 414.858 969.8784 414.28047 971.149 413.5874 C 972.4196 412.89434 973.5554 412.14354 974.5565 411.33497 C 975.5576 410.5264 976.3661 409.7756 976.9822 409.08253 L 978.9459 406.77234 Z" stroke="black" stroke-linecap="round" stroke-linejoin="round" stroke-width="1"/>
          </g>
          <g id="Graphic_76">
            <path d="M 1008.5163 405.61725 L 1016.602 405.61725 L 1017.8726 415.55107 C 1018.6426 415.8591 1019.8555 416.10936 1021.5111 416.3019 C 1023.1668 416.4944 1024.8031 416.59065 1026.4203 416.59065 C 1031.4257 416.59065 1035.0642 415.83985 1037.336 414.3382 C 1039.6076 412.8366 1040.7435 410.54567 1040.7435 407.4654 C 1040.7435 405.3862 1039.9542 403.7306 1038.3755 402.4985 C 1036.7969 401.2664 1034.814 400.2268 1032.4268 399.37973 C 1030.0396 398.53266 1027.4406 397.6856 1024.6299 396.8385 C 1021.8191 395.99144 1019.2202 394.8941 1016.833 393.5465 C 1014.4458 392.1989 1012.4629 390.447 1010.8843 388.2908 C 1009.3056 386.1346 1008.5163 383.2854 1008.5163 379.7431 C 1008.5163 373.9676 1010.4414 369.55903 1014.2918 366.51726 C 1018.1421 363.4755 1023.263 361.87763 1029.6546 361.7236 C 1032.3498 361.8006 1035.1027 362.0124 1037.9135 362.3589 C 1040.7242 362.70545 1043.5927 363.34074 1046.519 364.26482 L 1049.4067 365.1889 L 1049.0602 380.7827 L 1041.552 380.7827 L 1039.7039 371.77295 C 1039.0878 371.54193 1037.8942 371.25315 1036.1231 370.90662 C 1034.3519 370.5601 1032.4653 370.38683 1030.4631 370.38683 C 1029.077 370.38683 1027.7679 370.50234 1026.5358 370.73336 C 1025.3037 370.9644 1024.2064 371.3494 1023.2438 371.88846 C 1022.2812 372.4275 1021.5111 373.19756 1020.9336 374.19865 C 1020.356 375.19973 1020.0673 376.43182 1020.0673 377.89495 C 1020.0673 380.12815 1020.8566 381.88003 1022.4352 383.15064 C 1024.0138 384.42125 1025.9967 385.5186 1028.384 386.44266 C 1030.7712 387.36674 1033.3701 388.2523 1036.1808 389.0994 C 1038.9916 389.94645 1041.5905 391.0438 1043.9777 392.3914 C 1046.365 393.739 1048.3478 395.4524 1049.9265 397.5316 C 1051.5051 399.61076 1052.2944 402.34446 1052.2944 405.73275 C 1052.2944 408.96704 1051.6014 411.81625 1050.2153 414.28046 C 1048.8291 416.7447 1046.9617 418.8046 1044.613 420.4602 C 1042.2643 422.11587 1039.5306 423.34796 1036.4119 424.15653 C 1033.2931 424.9651 1029.9626 425.3694 1026.4203 425.3694 C 1025.1112 425.3694 1023.7443 425.3116 1022.3197 425.1961 C 1020.8951 425.0806 1019.4897 424.9266 1018.1036 424.7341 C 1016.7175 424.54156 1015.4276 424.3298 1014.234 424.09877 C 1013.0404 423.86775 1012.0586 423.63674 1011.2885 423.4057 L 1008.6318 422.71266 Z" fill="black"/>
            <path d="M 1008.5163 405.61725 L 1016.602 405.61725 L 1017.8726 415.55107 C 1018.6426 415.8591 1019.8555 416.10936 1021.5111 416.3019 C 1023.1668 416.4944 1024.8031 416.59065 1026.4203 416.59065 C 1031.4257 416.59065 1035.0642 415.83985 1037.336 414.3382 C 1039.6076 412.8366 1040.7435 410.54567 1040.7435 407.4654 C 1040.7435 405.3862 1039.9542 403.7306 1038.3755 402.4985 C 1036.7969 401.2664 1034.814 400.2268 1032.4268 399.37973 C 1030.0396 398.53266 1027.4406 397.6856 1024.6299 396.8385 C 1021.8191 395.99144 1019.2202 394.8941 1016.833 393.5465 C 1014.4458 392.1989 1012.4629 390.447 1010.8843 388.2908 C 1009.3056 386.1346 1008.5163 383.2854 1008.5163 379.7431 C 1008.5163 373.9676 1010.4414 369.55903 1014.2918 366.51726 C 1018.1421 363.4755 1023.263 361.87763 1029.6546 361.7236 C 1032.3498 361.8006 1035.1027 362.0124 1037.9135 362.3589 C 1040.7242 362.70545 1043.5927 363.34074 1046.519 364.26482 L 1049.4067 365.1889 L 1049.0602 380.7827 L 1041.552 380.7827 L 1039.7039 371.77295 C 1039.0878 371.54193 1037.8942 371.25315 1036.1231 370.90662 C 1034.3519 370.5601 1032.4653 370.38683 1030.4631 370.38683 C 1029.077 370.38683 1027.7679 370.50234 1026.5358 370.73336 C 1025.3037 370.9644 1024.2064 371.3494 1023.2438 371.88846 C 1022.2812 372.4275 1021.5111 373.19756 1020.9336 374.19865 C 1020.356 375.19973 1020.0673 376.43182 1020.0673 377.89495 C 1020.0673 380.12815 1020.8566 381.88003 1022.4352 383.15064 C 1024.0138 384.42125 1025.9967 385.5186 1028.384 386.44266 C 1030.7712 387.36674 1033.3701 388.2523 1036.1808 389.0994 C 1038.9916 389.94645 1041.5905 391.0438 1043.9777 392.3914 C 1046.365 393.739 1048.3478 395.4524 1049.9265 397.5316 C 1051.5051 399.61076 1052.2944 402.34446 1052.2944 405.73275 C 1052.2944 408.96704 1051.6014 411.81625 1050.2153 414.28046 C 1048.8291 416.7447 1046.9617 418.8046 1044.613 420.4602 C 1042.2643 422.11587 1039.5306 423.34796 1036.4119 424.15653 C 1033.2931 424.9651 1029.9626 425.3694 1026.4203 425.3694 C 1025.1112 425.3694 1023.7443 425.3116 1022.3197 425.1961 C 1020.8951 425.0806 1019.4897 424.9266 1018.1036 424.7341 C 1016.7175 424.54156 1015.4276 424.3298 1014.234 424.09877 C 1013.0404 423.86775 1012.0586 423.63674 1011.2885 423.4057 L 1008.6318 422.71266 Z" stroke="black" stroke-linecap="round" stroke-linejoin="round" stroke-width="1"/>
          </g>
        </g>
      </g>
    </g>
  </g>
</svg>
